<svg id="Ebene_1" data-name="Ebene 1" xmlns="http://www.w3.org/2000/svg" viewBox="0 0 232.56 94.03"><defs><style>.cls-1{fill:#242265;}.cls-2{fill:#00d8ff;}</style></defs><g id="yFiles_html_neu" data-name="yFiles html neu"><g id="yFiles_for_javafx" data-name="yFiles for javafx"><path class="cls-1" d="M0,37.57.11,57A27.65,27.65,0,0,0,14.05,80.81l16.86,9.6a27.63,27.63,0,0,0,27.6-.16l16.75-9.81a27.56,27.56,0,0,0,13.66-24l-.11-19.41A27.6,27.6,0,0,0,74.87,13.23L58,3.62a27.58,27.58,0,0,0-27.6.16l-16.75,9.8A27.62,27.62,0,0,0,0,37.57"/><path class="cls-1" d="M54.17,66.18a14.49,14.49,0,0,1,2,3.15,5.79,5.79,0,0,1-.91,6.25,5.4,5.4,0,0,1-7.38.7,5.76,5.76,0,0,1-2.18-5,10.59,10.59,0,0,1,1.14-3.89,32.42,32.42,0,0,0,1.43-3.52,12.8,12.8,0,0,0,.43-4.57,45.38,45.38,0,0,0-.53-4.67,11.35,11.35,0,0,0-2.79-6,14.42,14.42,0,0,0-5.24-3.45c-.86-.36-1.72-.76-2.59-1.11a13,13,0,0,0-6.32-.87c-1.38.14-2.73.36-4.12.37A6.56,6.56,0,0,1,22.65,42a5.51,5.51,0,0,1-1.09-7,5.58,5.58,0,0,1,7.81-1.67,8.34,8.34,0,0,1,2.31,2.16c.55.76,1.11,1.53,1.67,2.28a14.06,14.06,0,0,0,3.34,3.28,19,19,0,0,0,3,1.55c1,.45,2,.88,3,1.28a11.29,11.29,0,0,0,5.51.79,11.44,11.44,0,0,0,4.62-1.54c1.22-.73,2.35-1.59,3.49-2.43a15.37,15.37,0,0,0,3.26-3.08,16.61,16.61,0,0,0,1.72-3,22.73,22.73,0,0,1,2.07-4.16,6.09,6.09,0,0,1,3.82-2.54,5.45,5.45,0,0,1,6.45,6.25,5.56,5.56,0,0,1-3,4.07,12,12,0,0,1-4.93,1.15,14.87,14.87,0,0,0-5.12,1.18,18.41,18.41,0,0,0-1.63.91,31.74,31.74,0,0,0-3.3,2.34A13.4,13.4,0,0,0,52,47.57a11.41,11.41,0,0,0-1.45,3.83,16.32,16.32,0,0,0-.05,4.47c.13,1.21.24,2.43.45,3.65a13,13,0,0,0,1.79,4.61c.43.75,1,1.42,1.39,2.05"/><path class="cls-1" d="M59.11,54.36a14,14,0,0,1,3.65.82,5.77,5.77,0,0,1,3.77,5.06A5.42,5.42,0,0,1,61.81,66a5.79,5.79,0,0,1-5.11-2,10.54,10.54,0,0,1-2-3.55,27.6,27.6,0,0,0-1.48-3.5,12.73,12.73,0,0,0-2.92-3.54c-1.19-1-2.4-2-3.68-2.93a11.54,11.54,0,0,0-6.21-2.26,14.4,14.4,0,0,0-6.15,1.27c-.87.35-1.75.67-2.61,1a13.3,13.3,0,0,0-5.09,3.87c-.87,1.07-1.67,2.19-2.64,3.17a6.55,6.55,0,0,1-4.25,2.07A5.53,5.53,0,0,1,14,55.39a5.6,5.6,0,0,1,4.34-6.71,8.21,8.21,0,0,1,3.16-.1l2.8.43A14.35,14.35,0,0,0,29,49a18.51,18.51,0,0,0,3.2-1c1-.38,2-.79,3-1.23a11.28,11.28,0,0,0,4.46-3.34,11.49,11.49,0,0,0,2.17-4.35c.34-1.37.54-2.79.75-4.18a15.23,15.23,0,0,0,.13-4.47,16.69,16.69,0,0,0-.92-3.34,22.61,22.61,0,0,1-1.47-4.41,6.05,6.05,0,0,1,.91-4.49,5.45,5.45,0,0,1,9-.14A5.59,5.59,0,0,1,51,23a11.9,11.9,0,0,1-2.68,4.3,15,15,0,0,0-2.79,4.44A18.67,18.67,0,0,0,45,33.56a33.24,33.24,0,0,0-.68,4,13.53,13.53,0,0,0,.11,5.19,11.11,11.11,0,0,0,1.69,3.74,16.31,16.31,0,0,0,3.12,3.2c1,.77,1.9,1.56,2.9,2.26a13,13,0,0,0,4.53,2c.87.19,1.72.28,2.45.43"/><path class="cls-2" d="M54.17,66.18a14.49,14.49,0,0,1,2,3.15,5.79,5.79,0,0,1-.91,6.25,5.4,5.4,0,0,1-7.38.7,5.76,5.76,0,0,1-2.18-5,10.59,10.59,0,0,1,1.14-3.89,32.42,32.42,0,0,0,1.43-3.52,12.8,12.8,0,0,0,.43-4.57,45.38,45.38,0,0,0-.53-4.67,11.35,11.35,0,0,0-2.79-6,14.42,14.42,0,0,0-5.24-3.45c-.86-.36-1.72-.76-2.59-1.11a13,13,0,0,0-6.32-.87c-1.38.14-2.73.36-4.12.37A6.56,6.56,0,0,1,22.65,42a5.51,5.51,0,0,1-1.09-7,5.58,5.58,0,0,1,7.81-1.67,8.34,8.34,0,0,1,2.31,2.16c.55.76,1.11,1.53,1.67,2.28a14.06,14.06,0,0,0,3.34,3.28,19,19,0,0,0,3,1.55c1,.45,2,.88,3,1.28a11.29,11.29,0,0,0,5.51.79,11.44,11.44,0,0,0,4.62-1.54c1.22-.73,2.35-1.59,3.49-2.43a15.37,15.37,0,0,0,3.26-3.08,16.61,16.61,0,0,0,1.72-3,22.73,22.73,0,0,1,2.07-4.16,6.09,6.09,0,0,1,3.82-2.54,5.45,5.45,0,0,1,6.45,6.25,5.56,5.56,0,0,1-3,4.07,12,12,0,0,1-4.93,1.15,14.87,14.87,0,0,0-5.12,1.18,18.41,18.41,0,0,0-1.63.91,31.74,31.74,0,0,0-3.3,2.34A13.4,13.4,0,0,0,52,47.57a11.41,11.41,0,0,0-1.45,3.83,16.32,16.32,0,0,0-.05,4.47c.13,1.21.24,2.43.45,3.65a13,13,0,0,0,1.79,4.61c.43.75,1,1.42,1.39,2.05"/><path class="cls-2" d="M59.11,54.36a14,14,0,0,1,3.65.82,5.77,5.77,0,0,1,3.77,5.06A5.42,5.42,0,0,1,61.81,66a5.79,5.79,0,0,1-5.11-2,10.54,10.54,0,0,1-2-3.55,27.6,27.6,0,0,0-1.48-3.5,12.73,12.73,0,0,0-2.92-3.54c-1.19-1-2.4-2-3.68-2.93a11.54,11.54,0,0,0-6.21-2.26,14.4,14.4,0,0,0-6.15,1.27c-.87.35-1.75.67-2.61,1a13.3,13.3,0,0,0-5.09,3.87c-.87,1.07-1.67,2.19-2.64,3.17a6.55,6.55,0,0,1-4.25,2.07A5.53,5.53,0,0,1,14,55.39a5.6,5.6,0,0,1,4.34-6.71,8.21,8.21,0,0,1,3.16-.1l2.8.43A14.35,14.35,0,0,0,29,49a18.51,18.51,0,0,0,3.2-1c1-.38,2-.79,3-1.23a11.28,11.28,0,0,0,4.46-3.34,11.49,11.49,0,0,0,2.17-4.35c.34-1.37.54-2.79.75-4.18a15.23,15.23,0,0,0,.13-4.47,16.69,16.69,0,0,0-.92-3.34,22.61,22.61,0,0,1-1.47-4.41,6.05,6.05,0,0,1,.91-4.49,5.45,5.45,0,0,1,9-.14A5.59,5.59,0,0,1,51,23a11.9,11.9,0,0,1-2.68,4.3,15,15,0,0,0-2.79,4.44A18.67,18.67,0,0,0,45,33.56a33.24,33.24,0,0,0-.68,4,13.53,13.53,0,0,0,.11,5.19,11.11,11.11,0,0,0,1.69,3.74,16.31,16.31,0,0,0,3.12,3.2c1,.77,1.9,1.56,2.9,2.26a13,13,0,0,0,4.53,2c.87.19,1.72.28,2.45.43"/></g><path class="cls-1" d="M130.48,37.89v.16L116.54,73.18H110.4v-.1l5.24-12.14L105.52,38.05v-.16h6.25l5,12.08a39.83,39.83,0,0,1,1.59,4.61c.48-1.75.95-3.18,1.43-4.61l4.61-12.08Z"/><path class="cls-1" d="M135.36,25.49h22.52v5.77H141.61V41.65h14.58v5.62H141.61V61.52h-6.25Z"/><path class="cls-1" d="M162.39,29.51A3.61,3.61,0,1,1,166,33,3.38,3.38,0,0,1,162.39,29.51Zm.69,8.38h5.77V61.52h-5.77Z"/><path class="cls-1" d="M175.64,23.37h5.78l.05,38.15h-5.83Z"/><path class="cls-1" d="M209.71,48.86a24.84,24.84,0,0,1-.21,2.75h-17c.75,3.82,3.71,5.83,7.53,5.83a8.91,8.91,0,0,0,6.25-2.22l2.44,3.71a13.93,13.93,0,0,1-9.22,3.28c-7.58,0-12.77-5.14-12.77-12.56,0-6.94,5-12.4,12.19-12.4C205.63,37.25,209.71,41.76,209.71,48.86ZM192.6,47.69h11.66c-.16-3.76-2.39-5.72-5.41-5.72S193.23,44,192.6,47.69Z"/><path class="cls-1" d="M213.06,59.46l2.28-4.08a12.11,12.11,0,0,0,6.46,2c2.12,0,3.5-1,3.5-2.44,0-1.75-2.23-2.6-4.56-3.5C217,50,214.06,48,214.06,44.14c0-4.34,3.87-6.62,8.38-6.62a14.75,14.75,0,0,1,7.73,2.12l-2,3.86a11.94,11.94,0,0,0-5.25-1.37c-1.8,0-3.34.53-3.34,2s1.75,2.44,4.3,3.34C228,49,231,51,231,54.9c0,4.4-3.55,7.15-8.75,7.15A16.37,16.37,0,0,1,213.06,59.46Z"/></g></svg>